# xmcd
#
# Track frame offsets: 
#        150
#        10523
#        23514
#        36686
#        46642
#        59530
#        73928
#        85153
#        97121
#        109046
#        122721
#        136884
#        149101
#        161883
#        172165
#        186715
#        199475
#        211399
#        224455
#        237511
#        251354
#
# Disc length: 3520 seconds
#
# Revision: 0
# Processed by: cddbd v1.5.2PL0 Copyright (c) Steve Scherf et al.
# Submitted via: ExactAudioCopy v1.0b4
#
DISCID=4b0dbe15
DTITLE=201 Blues Hits - CD 10
DYEAR=2013
DGENRE=Blues
TTITLE0=Little Willie John - Need Your Love So Bad
TTITLE1=Muddy Waters - Got My Mojo Workin'
TTITLE2=B.B. King - When My Heart Beats Like A Hammer
TTITLE3=Champion Jack Dupree - Me And My Mute
TTITLE4=Sonny Terry and Brownie McGhee - Money Spending Woman
TTITLE5=Blind Willie Johnson - Nobody's Fault But Mine
TTITLE6=Howlin' Wolf - The Red Rooster
TTITLE7=Johnny Shines - Joillet Blues
TTITLE8=Robert Johnson - Hellhound On My Trail
TTITLE9=B.B. King - Boogie Rock (House Rocker)
TTITLE10=Bo Carter - Banana In Your Fruit Basket
TTITLE11=Big Joe Williams - Delta Blues
TTITLE12=Jimmy McCracklin - Blues Blasters Boogie
TTITLE13=B.B. King - Come By Here
TTITLE14=Papa Charlie McCoy - Motherless And Fatherless Blues
TTITLE15=Bukka White - Fixin To Die
TTITLE16=Willie Mabon - I'm Mad
TTITLE17=Robert Petway - Bertha Lee Blues
TTITLE18=Robert Nighthawk - Six Three O
TTITLE19=St Louis Jimmy - So Nice And Kind
TTITLE20=Muddy Waters - Just Make Love To Me
EXTD=
EXTT0=
EXTT1=
EXTT2=
EXTT3=
EXTT4=
EXTT5=
EXTT6=
EXTT7=
EXTT8=
EXTT9=
EXTT10=
EXTT11=
EXTT12=
EXTT13=
EXTT14=
EXTT15=
EXTT16=
EXTT17=
EXTT18=
EXTT19=
EXTT20=
PLAYORDER=
